<svg width="658" height="600" viewBox="0 0 658 600" fill="none" xmlns="http://www.w3.org/2000/svg">
<path d="M7.5 398V410.5C7.5 427.069 20.9315 440.5 37.5 440.5H325C341.569 440.5 355 453.931 355 470.5V522C355 538.569 368.431 552 385 552H583.5C600.069 552 613.5 565.431 613.5 582V600" stroke="#EBF2FC" stroke-width="4"/>
<path d="M2 100V79.7608C2 63.1922 15.4315 49.7608 32 49.7608H288.244C301.294 49.7608 311.874 39.1811 311.874 26.1304V26.1304C311.874 13.0797 322.454 2.5 335.504 2.5H626C642.569 2.5 656 15.9315 656 32.5V100" stroke="#EBF2FC" stroke-width="4"/>
</svg>
