<svg width="52" height="82" viewBox="0 0 52 82" fill="none" xmlns="http://www.w3.org/2000/svg">
<path d="M46.6561 9.995C46.2444 9.46697 45.472 9.36526 44.9311 9.76742C44.3904 10.1694 44.2861 10.9234 44.6981 11.4513C47.8336 15.469 49.4907 20.2699 49.4907 25.3347C49.4907 30.6616 47.5778 35.8512 44.1041 39.9474C43.5438 40.6081 42.9498 41.3135 42.3886 42.0342L38.8694 46.5528C36.9349 49.0365 35.5282 51.806 34.6798 54.798H31.7545V53.7054C31.7545 52.6091 31.2014 51.5845 30.2752 50.9649C30.0188 50.7934 29.8657 50.5098 29.8657 50.2064V47.8519H31.529C33.8036 47.8519 35.6542 46.0453 35.6542 43.8249C35.6542 41.6046 33.8038 39.7981 31.529 39.7981C29.2544 39.7981 27.4038 41.6046 27.4038 43.8249V45.4489H24.5954V43.8249C24.5954 41.6044 22.745 39.7981 20.4702 39.7981C18.1956 39.7981 16.345 41.6047 16.345 43.8251C16.345 46.0456 18.1956 47.8519 20.4702 47.8519H22.1337V50.2064C22.1337 50.5098 21.9806 50.7934 21.7243 50.9649C20.798 51.5844 20.2449 52.6091 20.2449 53.7054V54.798H17.3194C16.4713 51.806 15.0644 49.0365 13.13 46.5528L9.54568 41.9507C8.99822 41.2477 8.42302 40.5672 7.92688 39.9845C4.40755 35.8519 2.48342 30.6106 2.50888 25.2262C2.53795 19.0936 5.04022 13.3315 9.55488 9.00124C14.0725 4.66804 20.0228 2.3312 26.3108 2.4052C31.7017 2.47343 36.7498 4.27422 40.9093 7.61332C41.4343 8.035 42.2099 7.96102 42.6418 7.44835C43.0737 6.93585 42.9979 6.17864 42.4729 5.75711C37.9422 2.12028 32.2137 0.0763651 26.3425 0.00237288C19.3974 -0.0897169 12.8189 2.50145 7.82942 7.28709C2.84302 12.0698 0.0791507 18.4368 0.0471507 25.2151C0.0190173 31.1635 2.14502 36.9543 6.03368 41.5206C6.51328 42.0839 7.06835 42.7406 7.58595 43.4051L11.1702 48.0071C12.7862 50.0821 13.992 52.379 14.7689 54.851C13.825 55.0604 13.1178 55.8845 13.1178 56.8684V61.5213C13.1178 62.6191 13.9985 63.5178 15.1062 63.5853V65.1638C15.1062 65.8275 15.6573 66.3653 16.337 66.3653C17.0168 66.3653 17.5678 65.8275 17.5678 65.1638V63.5918H34.4309V70.4878L31.8365 73.7652H20.162L17.5642 70.4837C17.5166 69.8624 16.9854 69.3726 16.3369 69.3726C15.6572 69.3726 15.1061 69.9104 15.1061 70.5741C15.1061 71.047 15.2692 71.5139 15.5658 71.8887L18.2922 75.3329C18.634 75.7645 19.1381 76.0494 19.6842 76.1368C19.8505 79.3971 22.6194 82 25.9998 82C29.3802 82 32.1491 79.3973 32.3149 76.1368C32.861 76.0494 33.3653 75.7645 33.7071 75.3327L36.4337 71.8883C36.7298 71.5137 36.893 71.047 36.893 70.574V63.585C38.0009 63.5178 38.8816 62.6191 38.8816 61.5211V56.8683C38.8816 55.8844 38.1742 55.0601 37.2303 54.8508C38.0074 52.379 39.2133 50.0819 40.8291 48.0069L44.3484 43.4884C44.8811 42.8041 45.4566 42.1208 46.0005 41.4794C49.8388 36.9531 51.9525 31.2193 51.9525 25.3345C51.9525 19.7392 50.1212 14.4347 46.6561 9.995ZM29.8658 43.8251C29.8658 42.9297 30.6119 42.2013 31.5292 42.2013C32.4465 42.2013 33.1926 42.9297 33.1926 43.8253C33.1926 44.7206 32.4465 45.4491 31.5292 45.4491H29.8658V43.8251ZM25.9998 79.597C23.9882 79.597 22.3309 78.0877 22.1538 76.1682H29.8456C29.6688 78.0877 28.0114 79.597 25.9998 79.597ZM22.7067 53.7054C22.7067 53.4022 22.8597 53.1187 23.1161 52.9471C24.0423 52.3273 24.5954 51.3027 24.5954 50.2064V47.8519H27.4038V50.2064C27.4038 51.3027 27.9569 52.3272 28.8834 52.9471C29.1397 53.1187 29.2926 53.4022 29.2926 53.7054V54.798H22.7065V53.7054H22.7067ZM20.4705 45.4491C19.5532 45.4491 18.807 44.7207 18.807 43.8251C18.807 42.9297 19.5532 42.2013 20.4705 42.2013C21.3877 42.2013 22.1338 42.9297 22.1338 43.8251V45.4491H20.4705ZM36.4198 61.1886H15.5798V57.2011H36.4198V61.1886Z" fill="white"/>
</svg>
