<svg width="133" height="29" viewBox="0 0 133 29" fill="none" xmlns="http://www.w3.org/2000/svg">
<path d="M47.32 11.32C47.72 11.32 48.0533 11.2773 48.32 11.192C48.592 11.1013 48.8107 10.9787 48.976 10.824C49.1413 10.6693 49.2587 10.488 49.328 10.28C49.3973 10.072 49.432 9.848 49.432 9.608C49.432 9.34667 49.3973 9.10933 49.328 8.896C49.2587 8.68267 49.1413 8.504 48.976 8.36C48.8107 8.21067 48.5947 8.096 48.328 8.016C48.0613 7.936 47.728 7.896 47.328 7.896H45.44V11.32H47.32ZM47.328 6.216C48.08 6.216 48.7227 6.29867 49.256 6.464C49.7947 6.62933 50.232 6.856 50.568 7.144C50.9093 7.42667 51.16 7.76267 51.32 8.152C51.48 8.536 51.56 8.94933 51.56 9.392C51.56 9.936 51.464 10.4293 51.272 10.872C51.0853 11.3147 50.8107 11.696 50.448 12.016C50.0853 12.3307 49.64 12.5733 49.112 12.744C48.5893 12.9147 47.992 13 47.32 13H43.288V1.432H51.136V3.096H45.44V6.216H47.328ZM63.5981 1.432V13H61.4381V5.752C61.4381 5.48 61.4435 5.19467 61.4541 4.896C61.4701 4.59733 61.5021 4.28 61.5501 3.944C61.4435 4.24267 61.3261 4.52 61.1981 4.776C61.0755 5.02667 60.9555 5.248 60.8381 5.44L56.4141 12.336C56.3661 12.416 56.3075 12.496 56.2381 12.576C56.1741 12.656 56.1021 12.728 56.0221 12.792C55.9421 12.8507 55.8541 12.9013 55.7581 12.944C55.6621 12.9813 55.5635 13 55.4621 13H53.8461V1.432H56.0061V8.68C56.0061 8.952 55.9981 9.24 55.9821 9.544C55.9715 9.84267 55.9421 10.16 55.8941 10.496C56.0008 10.1973 56.1155 9.92 56.2381 9.664C56.3661 9.408 56.4915 9.184 56.6141 8.992L61.0301 2.096C61.0781 2.016 61.1341 1.936 61.1981 1.856C61.2675 1.776 61.3421 1.70667 61.4221 1.648C61.5021 1.584 61.5875 1.53333 61.6781 1.496C61.7741 1.45333 61.8755 1.432 61.9821 1.432H63.5981ZM65.9902 2.52C66.4382 2.136 66.9689 1.83733 67.5822 1.624C68.2009 1.41067 68.8862 1.304 69.6382 1.304C70.2622 1.304 70.8249 1.37867 71.3262 1.528C71.8329 1.67733 72.2622 1.888 72.6142 2.16C72.9662 2.42667 73.2356 2.74667 73.4222 3.12C73.6142 3.488 73.7102 3.89333 73.7102 4.336C73.7102 4.88 73.5849 5.37333 73.3342 5.816C73.0889 6.25333 72.7156 6.608 72.2142 6.88C72.4809 7.008 72.7236 7.16 72.9422 7.336C73.1662 7.50667 73.3556 7.69867 73.5102 7.912C73.6702 8.12 73.7929 8.34667 73.8782 8.592C73.9689 8.83733 74.0142 9.09867 74.0142 9.376C74.0142 9.89867 73.9156 10.3867 73.7182 10.84C73.5262 11.2933 73.2436 11.688 72.8702 12.024C72.5022 12.36 72.0489 12.6267 71.5102 12.824C70.9716 13.016 70.3556 13.112 69.6622 13.112C69.2569 13.112 68.8596 13.0747 68.4702 13C68.0862 12.9307 67.7182 12.8293 67.3662 12.696C67.0142 12.5627 66.6836 12.4027 66.3742 12.216C66.0649 12.0293 65.7902 11.8213 65.5502 11.592L66.1822 10.56C66.2409 10.4853 66.3102 10.424 66.3902 10.376C66.4756 10.3227 66.5689 10.296 66.6702 10.296C66.8089 10.296 66.9609 10.352 67.1262 10.464C67.2916 10.5707 67.4916 10.6907 67.7262 10.824C67.9609 10.9573 68.2382 11.08 68.5582 11.192C68.8836 11.2987 69.2729 11.352 69.7262 11.352C70.4462 11.352 71.0036 11.1973 71.3982 10.888C71.7929 10.5787 71.9902 10.104 71.9902 9.464C71.9902 9.20267 71.9369 8.968 71.8302 8.76C71.7236 8.552 71.5716 8.376 71.3742 8.232C71.1769 8.088 70.9369 7.97867 70.6542 7.904C70.3769 7.824 70.0676 7.784 69.7262 7.784H68.0942L68.0862 6.056H69.5742C70.2409 6.056 70.7609 5.92533 71.1342 5.664C71.5129 5.39733 71.7022 5.01333 71.7022 4.512C71.7022 4.06933 71.5236 3.71733 71.1662 3.456C70.8142 3.18933 70.3022 3.056 69.6302 3.056C69.2409 3.056 68.9049 3.09867 68.6222 3.184C68.3449 3.26933 68.1022 3.36267 67.8942 3.464C67.6916 3.56 67.5182 3.65067 67.3742 3.736C67.2356 3.82133 67.1102 3.864 66.9982 3.864C66.8916 3.864 66.8009 3.83733 66.7262 3.784C66.6516 3.73067 66.5822 3.65067 66.5182 3.544L65.9902 2.52ZM86.1831 1.432V13H84.0231V7.944H78.5911V13H76.4311V1.432H78.5911V6.408H84.0231V1.432H86.1831ZM91.3992 3.144V6.352H95.4472V8.008H91.3992V11.28H96.5352V13H89.2392V1.432H96.5352V3.144H91.3992ZM106.616 10.272C106.734 10.272 106.838 10.3173 106.928 10.408L107.776 11.328C107.307 11.9093 106.728 12.3547 106.04 12.664C105.358 12.9733 104.536 13.128 103.576 13.128C102.718 13.128 101.944 12.9813 101.256 12.688C100.574 12.3947 99.9897 11.9867 99.5044 11.464C99.019 10.9413 98.6457 10.3173 98.3844 9.592C98.1284 8.86667 98.0004 8.07467 98.0004 7.216C98.0004 6.34667 98.139 5.552 98.4164 4.832C98.6937 4.10667 99.083 3.48267 99.5844 2.96C100.091 2.43733 100.694 2.032 101.392 1.744C102.091 1.45067 102.864 1.304 103.712 1.304C104.555 1.304 105.302 1.44267 105.952 1.72C106.608 1.99733 107.166 2.36 107.624 2.808L106.904 3.808C106.862 3.872 106.806 3.928 106.736 3.976C106.672 4.024 106.582 4.048 106.464 4.048C106.384 4.048 106.302 4.02667 106.216 3.984C106.131 3.936 106.038 3.88 105.936 3.816C105.835 3.74667 105.718 3.672 105.584 3.592C105.451 3.512 105.296 3.44 105.12 3.376C104.944 3.30667 104.739 3.25067 104.504 3.208C104.275 3.16 104.008 3.136 103.704 3.136C103.187 3.136 102.712 3.22933 102.28 3.416C101.854 3.59733 101.486 3.864 101.176 4.216C100.867 4.56267 100.627 4.98933 100.456 5.496C100.286 5.99733 100.2 6.57067 100.2 7.216C100.2 7.86667 100.291 8.44533 100.472 8.952C100.659 9.45867 100.91 9.88533 101.224 10.232C101.539 10.5787 101.91 10.8453 102.336 11.032C102.763 11.2133 103.222 11.304 103.712 11.304C104.006 11.304 104.27 11.288 104.504 11.256C104.744 11.224 104.963 11.1733 105.16 11.104C105.363 11.0347 105.552 10.9467 105.728 10.84C105.91 10.728 106.088 10.592 106.264 10.432C106.318 10.384 106.374 10.3467 106.432 10.32C106.491 10.288 106.552 10.272 106.616 10.272ZM52.64 27H50.472V17.088H45.448V27H43.288V15.432H52.64V27ZM59.4499 21.248C59.8445 21.248 60.1885 21.2 60.4819 21.104C60.7752 21.0027 61.0179 20.8613 61.2099 20.68C61.4072 20.4933 61.5539 20.2693 61.6499 20.008C61.7459 19.7413 61.7939 19.4453 61.7939 19.12C61.7939 18.8107 61.7459 18.5307 61.6499 18.28C61.5539 18.0293 61.4099 17.816 61.2179 17.64C61.0259 17.464 60.7832 17.3307 60.4899 17.24C60.1965 17.144 59.8499 17.096 59.4499 17.096H57.8419V21.248H59.4499ZM59.4499 15.432C60.2232 15.432 60.8925 15.5227 61.4579 15.704C62.0232 15.8853 62.4899 16.1387 62.8579 16.464C63.2259 16.7893 63.4979 17.1787 63.6739 17.632C63.8552 18.0853 63.9459 18.5813 63.9459 19.12C63.9459 19.68 63.8525 20.1947 63.6659 20.664C63.4792 21.128 63.1992 21.528 62.8259 21.864C62.4525 22.2 61.9832 22.4613 61.4179 22.648C60.8579 22.8347 60.2019 22.928 59.4499 22.928H57.8419V27H55.6899V15.432H59.4499ZM71.3829 22.632L69.9749 18.784C69.9055 18.6133 69.8335 18.4107 69.7589 18.176C69.6842 17.9413 69.6095 17.688 69.5349 17.416C69.4655 17.688 69.3935 17.944 69.3189 18.184C69.2442 18.4187 69.1722 18.624 69.1029 18.8L67.7029 22.632H71.3829ZM75.1829 27H73.5189C73.3322 27 73.1802 26.9547 73.0629 26.864C72.9455 26.768 72.8575 26.6507 72.7989 26.512L71.9349 24.152H67.1429L66.2789 26.512C66.2362 26.6347 66.1535 26.7467 66.0309 26.848C65.9082 26.9493 65.7535 27 65.5669 27H63.8949L68.4389 15.432H70.6389L75.1829 27ZM86.6534 27H84.7014C84.4987 27 84.328 26.9467 84.1894 26.84C84.056 26.7333 83.9307 26.576 83.8134 26.368L81.3494 22.48C81.2854 22.368 81.216 22.2773 81.1414 22.208C81.072 22.1333 80.9947 22.0747 80.9094 22.032C80.8294 21.984 80.736 21.952 80.6294 21.936C80.528 21.92 80.4107 21.912 80.2774 21.912H78.9894V27H76.8374V15.432H78.9894V20.28H80.0774C80.296 20.28 80.4854 20.2427 80.6454 20.168C80.8054 20.0933 80.9547 19.9547 81.0934 19.752L83.6294 16.008C83.736 15.8373 83.8614 15.6987 84.0054 15.592C84.1494 15.4853 84.3227 15.432 84.5254 15.432H86.3654L83.2214 20.072C83.088 20.2747 82.9334 20.4427 82.7574 20.576C82.5814 20.7093 82.3867 20.8133 82.1734 20.888C82.4934 20.9787 82.7627 21.1227 82.9814 21.32C83.2054 21.512 83.4187 21.7787 83.6214 22.12L86.6534 27ZM96.538 17.2H93.05V27H90.898V17.2H87.41V15.432H96.538V17.2ZM108.284 15.432V27H106.124V19.752C106.124 19.48 106.129 19.1947 106.14 18.896C106.156 18.5973 106.188 18.28 106.236 17.944C106.129 18.2427 106.012 18.52 105.884 18.776C105.761 19.0267 105.641 19.248 105.524 19.44L101.1 26.336C101.052 26.416 100.993 26.496 100.924 26.576C100.86 26.656 100.788 26.728 100.708 26.792C100.628 26.8507 100.54 26.9013 100.444 26.944C100.348 26.9813 100.249 27 100.148 27H98.5318V15.432H100.692V22.68C100.692 22.952 100.684 23.24 100.668 23.544C100.657 23.8427 100.628 24.16 100.58 24.496C100.686 24.1973 100.801 23.92 100.924 23.664C101.052 23.408 101.177 23.184 101.3 22.992L105.716 16.096C105.764 16.016 105.82 15.936 105.884 15.856C105.953 15.776 106.028 15.7067 106.108 15.648C106.188 15.584 106.273 15.5333 106.364 15.496C106.46 15.4533 106.561 15.432 106.668 15.432H108.284ZM121.156 27H119.204C119.001 27 118.831 26.9467 118.692 26.84C118.559 26.7333 118.433 26.576 118.316 26.368L115.852 22.48C115.788 22.368 115.719 22.2773 115.644 22.208C115.575 22.1333 115.497 22.0747 115.412 22.032C115.332 21.984 115.239 21.952 115.132 21.936C115.031 21.92 114.913 21.912 114.78 21.912H113.492V27H111.34V15.432H113.492V20.28H114.58C114.799 20.28 114.988 20.2427 115.148 20.168C115.308 20.0933 115.457 19.9547 115.596 19.752L118.132 16.008C118.239 15.8373 118.364 15.6987 118.508 15.592C118.652 15.4853 118.825 15.432 119.028 15.432H120.868L117.724 20.072C117.591 20.2747 117.436 20.4427 117.26 20.576C117.084 20.7093 116.889 20.8133 116.676 20.888C116.996 20.9787 117.265 21.1227 117.484 21.32C117.708 21.512 117.921 21.7787 118.124 22.12L121.156 27ZM129.049 22.632L127.641 18.784C127.571 18.6133 127.499 18.4107 127.425 18.176C127.35 17.9413 127.275 17.688 127.201 17.416C127.131 17.688 127.059 17.944 126.985 18.184C126.91 18.4187 126.838 18.624 126.769 18.8L125.369 22.632H129.049ZM132.849 27H131.185C130.998 27 130.846 26.9547 130.729 26.864C130.611 26.768 130.523 26.6507 130.465 26.512L129.601 24.152H124.809L123.945 26.512C123.902 26.6347 123.819 26.7467 123.697 26.848C123.574 26.9493 123.419 27 123.233 27H121.561L126.105 15.432H128.305L132.849 27Z" fill="#282C37"/>
<path fill-rule="evenodd" clip-rule="evenodd" d="M16.6597 15.0584C15.5839 15.6587 14.9211 16.7683 14.9211 17.9695C14.9211 20.7213 14.9211 25.6999 14.9211 28.1597C14.9211 28.4601 15.0862 28.7374 15.3557 28.8866C15.6252 29.0378 15.9555 29.0378 16.225 28.8866C18.4113 27.6661 22.8165 25.2083 25.2614 23.8429C26.3372 23.2421 27 22.133 27 20.9335C27 18.1795 27 13.2018 27 10.7428C27 10.4424 26.8349 10.1651 26.5654 10.0149C26.2981 9.86494 25.9656 9.86494 25.6961 10.0149C23.512 11.235 19.1068 13.693 16.6597 15.0584Z" fill="#287EE7"/>
<path fill-rule="evenodd" clip-rule="evenodd" d="M4.42256e-08 20.9283C-1.44686e-06 22.13 0.662393 23.2393 1.73765 23.8402C4.18463 25.2057 8.59101 27.6659 10.7759 28.8865C11.0452 29.0378 11.3753 29.0378 11.6446 28.8865C11.9139 28.7374 12.0789 28.4601 12.0789 28.1596C12.0789 25.7016 12.0789 20.7266 12.0789 17.9744C12.0789 16.7731 11.4165 15.6634 10.3415 15.063C7.89475 13.6964 3.4888 11.2358 1.3031 10.0149C1.03423 9.86493 0.703028 9.86493 0.434375 10.0149C0.165505 10.1652 1.3055e-05 10.4425 1.26825e-05 10.7427C9.63199e-06 13.2012 3.45912e-06 18.1761 4.42256e-08 20.9283Z" fill="#57A3FF"/>
<path fill-rule="evenodd" clip-rule="evenodd" d="M2.57231 5.93244C2.29973 6.09464 2.13159 6.39409 2.13159 6.71826C2.13159 7.04243 2.29972 7.3421 2.57231 7.50407C4.78956 8.82207 9.25822 11.4776 11.7395 12.9528C12.8302 13.6011 14.1744 13.6011 15.2652 12.9528C17.7464 11.478 22.2131 8.82367 24.4277 7.50636C24.701 7.34439 24.8684 7.04471 24.8684 6.72054C24.8684 6.39637 24.701 6.09671 24.4277 5.93474C22.2109 4.61696 17.7442 1.96123 15.2608 0.486254C14.17 -0.162083 12.8258 -0.162085 11.7351 0.48625C9.25381 1.96077 4.7889 4.61513 2.57231 5.93244Z" fill="#9FCDFF"/>
</svg>
