<svg width="35" height="38" viewBox="0 0 35 38" fill="none" xmlns="http://www.w3.org/2000/svg">
<path fill-rule="evenodd" clip-rule="evenodd" d="M21.5959 19.7317C20.2014 20.5184 19.3421 21.9723 19.3421 23.5462C19.3421 27.1521 19.3421 33.6757 19.3421 36.899C19.3421 37.2926 19.5562 37.6559 19.9055 37.8514C20.2549 38.0496 20.6831 38.0496 21.0324 37.8514C23.8665 36.2521 29.5769 33.0316 32.7462 31.2424C34.1407 30.4552 35 29.0018 35 27.4301C35 23.8215 35 17.299 35 14.0768C35 13.6832 34.7859 13.3198 34.4366 13.123C34.09 12.9265 33.659 12.9265 33.3097 13.123C30.4784 14.7217 24.768 17.9425 21.5959 19.7317Z" fill="#6CA7EF"/>
<path fill-rule="evenodd" clip-rule="evenodd" d="M6.87788e-09 27.4233C-1.93151e-06 28.998 0.858658 30.4515 2.25252 31.2388C5.42452 33.0282 11.1365 36.2519 13.9687 37.8514C14.3178 38.0496 14.7457 38.0496 15.0948 37.8514C15.4439 37.6559 15.6579 37.2925 15.6579 36.8989C15.6579 33.6779 15.6579 27.159 15.6579 23.5527C15.6579 21.9786 14.7992 20.5245 13.4057 19.7377C10.2339 17.947 4.52252 14.7228 1.6892 13.123C1.34067 12.9265 0.911332 12.9265 0.563079 13.123C0.214544 13.3199 1.69206e-05 13.6832 1.64364e-05 14.0766C1.24708e-05 17.2981 4.44618e-06 23.817 6.87788e-09 27.4233Z" fill="#A5CBF9"/>
<path fill-rule="evenodd" clip-rule="evenodd" d="M3.33449 7.77355C2.98114 7.98608 2.76318 8.37847 2.76318 8.80324C2.76318 9.22801 2.98113 9.62068 3.33448 9.83292C6.2087 11.5599 12.0014 15.0396 15.2178 16.9726C16.6318 17.8221 18.3743 17.8221 19.7882 16.9726C23.0047 15.0402 28.7948 11.5621 31.6656 9.83592C32.0198 9.62368 32.2369 9.231 32.2369 8.80623C32.2369 8.38145 32.0198 7.98879 31.6656 7.77655C28.7919 6.04982 23.0018 2.56989 19.7825 0.63716C18.3686 -0.212385 16.6261 -0.212386 15.2121 0.637156C11.9957 2.56929 6.20784 6.04741 3.33449 7.77355Z" fill="#C2DFFF"/>
</svg>
