<svg width="836" height="201" viewBox="0 0 836 201" fill="none" xmlns="http://www.w3.org/2000/svg">
<path d="M51.5 92.3094C53.9752 90.8803 57.0248 90.8803 59.5 92.3094L99.5644 115.441C102.04 116.87 103.564 119.511 103.564 122.369V168.631C103.564 171.489 102.04 174.13 99.5644 175.559L59.5 198.691C57.0248 200.12 53.9752 200.12 51.5 198.691L11.4356 175.559C8.96038 174.13 7.43559 171.489 7.43559 168.631V122.369C7.43559 119.511 8.96038 116.87 11.4356 115.441L51.5 92.3094Z" fill="#EBF2FC"/>
<path d="M833.5 0.5V27.5C833.5 44.0685 820.069 57.5 803.5 57.5H386C369.431 57.5 356 70.9315 356 87.5V138C356 154.569 342.569 168 326 168H101" stroke="#EBF2FC" stroke-width="4"/>
</svg>
