<svg width="542" height="141" viewBox="0 0 542 141" fill="none" xmlns="http://www.w3.org/2000/svg">
<path d="M51.5 32.3094C53.9752 30.8803 57.0248 30.8803 59.5 32.3094L99.5644 55.4406C102.04 56.8697 103.564 59.5107 103.564 62.3688V108.631C103.564 111.489 102.04 114.13 99.5644 115.559L59.5 138.691C57.0248 140.12 53.9752 140.12 51.5 138.691L11.4356 115.559C8.96038 114.13 7.43559 111.489 7.43559 108.631V62.3688C7.43559 59.5107 8.96038 56.8697 11.4356 55.4406L51.5 32.3094Z" fill="#EBF2FC"/>
<path d="M539.5 0V24.5C539.5 41.0685 526.069 54.5 509.5 54.5H288C271.431 54.5 258 67.9315 258 84.5V84.5C258 101.069 244.569 114.5 228 114.5H63.5" stroke="#EBF2FC" stroke-width="4"/>
</svg>
