<svg width="97" height="81" viewBox="0 0 97 81" fill="none" xmlns="http://www.w3.org/2000/svg">
<path d="M77.138 17.6125L63.388 3.86249C63.1497 3.63225 62.8319 3.50247 62.5005 3.5H31.2505C30.2569 3.50297 29.3048 3.89901 28.6021 4.60163C27.8996 5.30425 27.5035 6.25635 27.5005 7.25V14.8125C20.7675 15.1281 14.4147 18.0249 9.76128 22.9015C5.10795 27.778 2.51172 34.2595 2.51172 41C2.51172 47.7405 5.10795 54.222 9.76128 59.0985C14.4147 63.9751 20.7675 66.8719 27.5005 67.1875V74.75C27.5035 75.7436 27.8996 76.6957 28.6021 77.3984C29.3048 78.1009 30.2569 78.4971 31.2505 78.5H73.7505C74.7441 78.4971 75.6963 78.1009 76.3989 77.3984C77.1015 76.6957 77.4976 75.7436 77.5005 74.75V18.5C77.498 18.1687 77.3683 17.8508 77.138 17.6125ZM63.7505 7.76249L73.238 17.25H65.0005C64.6691 17.25 64.3511 17.1183 64.1167 16.8839C63.8823 16.6495 63.7505 16.3315 63.7505 16V7.76249ZM5.00053 41C5.00867 34.9204 7.3452 29.0748 11.5299 24.6645C15.7147 20.2543 21.4297 17.6144 27.5005 17.2875V40.4875L11.1255 56.8625C7.18367 52.5199 5.00013 46.8649 5.00053 41ZM12.888 58.6251L29.2631 42.25H52.4631C52.2353 46.7291 50.7416 51.0516 48.1555 54.7156C45.5692 58.3796 41.9967 61.2348 37.8527 62.9495C33.7085 64.6641 29.1631 65.168 24.744 64.4025C20.3251 63.6371 16.2139 61.6336 12.888 58.6251ZM75.0005 74.75C75.0005 75.0815 74.8688 75.3995 74.6344 75.6339C74.4 75.8683 74.082 76 73.7505 76H31.2505C30.9191 76 30.6011 75.8683 30.3667 75.6339C30.1323 75.3995 30.0005 75.0815 30.0005 74.75V67.1875C36.7313 66.8624 43.0796 63.9629 47.7328 59.0888C52.3859 54.2145 54.9879 47.7385 55.0005 41C55.0005 40.6685 54.8688 40.3505 54.6344 40.1161C54.4 39.8817 54.082 39.75 53.7505 39.75H30.0005V7.25C30.0005 6.91848 30.1323 6.60053 30.3667 6.36612C30.6011 6.13169 30.9191 6 31.2505 6H61.2505V16C61.2535 16.9936 61.6495 17.9457 62.3521 18.6484C63.0548 19.3509 64.0069 19.7471 65.0005 19.75H75.0005V74.75Z" fill="white"/>
<path d="M33.75 9.75C33.4185 9.75 33.1005 9.88169 32.8661 10.1161C32.6317 10.3505 32.5 10.6685 32.5 11V36C32.5 36.3315 32.6317 36.6495 32.8661 36.8839C33.1005 37.1183 33.4185 37.25 33.75 37.25H58.75C59.0815 37.25 59.3995 37.1183 59.6339 36.8839C59.8683 36.6495 60 36.3315 60 36C59.9924 29.0404 57.2243 22.368 52.3032 17.4468C47.382 12.5257 40.7096 9.75761 33.75 9.75ZM35 34.75V12.2875C40.8553 12.6019 46.3879 15.0695 50.5343 19.2157C54.6805 23.3621 57.1481 28.8947 57.4625 34.75H35Z" fill="white"/>
<path d="M61.25 51C59.0249 51 56.8498 51.6599 54.9998 52.896C53.1497 54.1321 51.7078 55.8892 50.8564 57.9448C50.0049 60.0005 49.7821 62.2625 50.2161 64.4448C50.6502 66.6271 51.7217 68.6316 53.295 70.2049C54.8684 71.7783 56.8729 72.8497 59.0552 73.2839C61.2374 73.7179 63.4996 73.4951 65.5552 72.6436C67.6109 71.7921 69.3679 70.3503 70.604 68.5001C71.8403 66.6501 72.5 64.4751 72.5 62.25C72.4953 59.2677 71.3087 56.4089 69.1999 54.3001C67.0911 52.1913 64.2323 51.0047 61.25 51ZM61.25 71C59.5194 71 57.8277 70.4868 56.3888 69.5253C54.9498 68.5639 53.8282 67.1973 53.166 65.5985C52.5037 63.9996 52.3305 62.2403 52.6681 60.5429C53.0057 58.8456 53.839 57.2865 55.0628 56.0628C56.2865 54.8391 57.8456 54.0057 59.5429 53.6681C61.2402 53.3305 62.9996 53.5037 64.5985 54.166C66.1973 54.8283 67.5639 55.9499 68.5253 57.3888C69.4868 58.8277 70 60.5195 70 62.25C69.9973 64.5699 69.0747 66.7939 67.4343 68.4343C65.7938 70.0747 63.5698 70.9973 61.25 71Z" fill="white"/>
<path d="M58.7496 64.2325L55.8833 61.3663L54.1158 63.1337L57.8658 66.8837C58.1002 67.1181 58.4181 67.2497 58.7496 67.2497C59.081 67.2497 59.3989 67.1181 59.6333 66.8837L67.1333 59.3837L65.3658 57.6163L58.7496 64.2325Z" fill="white"/>
<path d="M62.5 24.75H72.5V27.25H62.5V24.75Z" fill="white"/>
<path d="M62.5 32.25H72.5V34.75H62.5V32.25Z" fill="white"/>
<path d="M62.5 39.75H72.5V42.25H62.5V39.75Z" fill="white"/>
</svg>
