<svg width="42" height="74" viewBox="0 0 42 74" fill="none" xmlns="http://www.w3.org/2000/svg">
<path d="M13.4042 26.48C13.4033 27.0408 13.8817 27.4961 14.4708 27.4952C15.0599 27.4961 15.5374 27.0416 15.5374 26.48C15.5374 25.9201 15.0591 25.4648 14.4708 25.4648C13.8807 25.4648 13.4033 25.9192 13.4042 26.48Z" fill="white"/>
<path d="M14.5504 29.5271C13.9627 29.5697 13.5227 30.0576 13.5675 30.6169C13.7057 32.3408 14.0084 35.5537 14.482 37.7062C14.6026 38.2552 15.1682 38.6072 15.7449 38.492C16.3238 38.3764 16.6907 37.8369 16.5705 37.2899C16.1048 35.1741 15.803 31.8106 15.6954 30.4626C15.6506 29.9033 15.1378 29.4847 14.5504 29.5271Z" fill="white"/>
<path d="M15.5376 20.3871C15.5368 23.1932 17.9219 25.4652 20.8713 25.4644C23.8205 25.4652 26.2066 23.1946 26.2054 20.3871C26.2054 17.5812 23.8202 15.3103 20.8718 15.3103C17.924 15.3103 15.5376 17.5806 15.5376 20.3871ZM24.0719 20.3873C24.0716 20.3876 24.0716 20.3876 24.0716 20.3876C24.0722 22.0714 22.6425 23.4339 20.8713 23.4333C19.1023 23.4339 17.6708 22.0725 17.6717 20.3873C17.6717 18.7036 19.1026 17.3416 20.8718 17.3414C22.6401 17.3414 24.0716 18.7033 24.0719 20.3873Z" fill="white"/>
<path d="M21.9391 72.3268L21.9389 63.3491C21.9391 62.7883 21.4614 62.3335 20.8719 62.3335C20.2829 62.3338 19.8054 62.7883 19.8051 63.3491V72.3266C19.8051 72.8876 20.2829 73.3424 20.8722 73.3424C21.4614 73.3421 21.9389 72.8876 21.9391 72.3268Z" fill="white"/>
<path d="M29.4833 65.1456L29.483 56.1679C29.483 55.6074 29.0052 55.1526 28.4161 55.1523C27.8269 55.1526 27.3494 55.6071 27.3489 56.1681V65.1456C27.3492 65.7064 27.8269 66.1612 28.4161 66.1614C29.0055 66.1609 29.483 65.7064 29.4833 65.1456Z" fill="white"/>
<path d="M13.3282 66.1614C13.9174 66.1611 14.3948 65.7066 14.3951 65.1458V56.1683C14.3951 55.6073 13.9174 55.1525 13.3282 55.1528C12.7387 55.1528 12.2614 55.6073 12.2614 56.1683V65.1458C12.261 65.7066 12.7387 66.1614 13.3282 66.1614Z" fill="white"/>
<path d="M21.6663 0.989746C21.4642 0.774299 21.1747 0.651427 20.8712 0.651428C20.5676 0.651428 20.2773 0.774019 20.076 0.989746C16.4557 4.84309 9.13534 15.3085 9.13534 26.4814C9.13534 28.8805 9.28411 31.2922 9.57449 33.6613C3.94383 37.2597 0.599888 43.2075 0.600098 49.684C0.600098 51.5035 0.86653 53.3062 1.39204 55.043C1.68831 56.0212 3.148 56.0164 3.44248 55.0433C4.79345 50.5873 7.96761 46.8563 12.2341 44.6564C12.6048 45.5625 13.0001 46.3892 13.4149 47.1214C13.88 47.9456 14.7415 48.4991 15.7294 48.6354C15.6879 48.9976 15.6664 49.3648 15.6664 49.7351C15.6664 53.4319 20.0041 58.3126 20.1889 58.5187C20.5939 58.9704 21.3163 58.9954 21.7548 58.5779C21.7745 58.5591 21.7937 58.5392 21.8119 58.519C21.9964 58.3131 26.3357 53.4322 26.3359 49.7351C26.3359 49.3496 26.3127 48.9673 26.2678 48.5908C27.1626 48.3978 27.9092 47.8634 28.3274 47.1231C28.7426 46.3901 29.1378 45.5628 29.5089 44.6564C33.7751 46.856 36.9495 50.5873 38.3005 55.0433C38.5994 56.0296 40.0588 56.006 40.3506 55.0427C40.8764 53.3062 41.1428 51.5035 41.1428 49.684C41.1428 43.2077 37.7986 37.2597 32.1682 33.6616C32.4585 31.292 32.6073 28.8803 32.6073 26.4812C32.6073 20.9811 30.9201 15.2081 27.5929 9.32175C25.9775 6.3703 23.2982 2.7265 21.6663 0.989746ZM2.79343 51.0957C2.75371 50.6275 2.73365 50.1562 2.73396 49.684C2.73365 44.2297 5.38619 39.1948 9.8986 35.937C10.3007 38.3877 10.8518 40.6931 11.5208 42.7168C7.73921 44.5888 4.69858 47.5273 2.79343 51.0957ZM24.2021 49.7351C24.2021 51.71 22.3147 54.5479 20.9999 56.2246C19.6858 54.5495 17.8001 51.7145 17.8001 49.7351C17.8001 49.3743 17.8256 49.0181 17.8742 48.6688H24.1276C24.1765 49.0178 24.2018 49.374 24.2021 49.7351ZM26.4485 46.16C26.2843 46.4504 25.9266 46.6378 25.5369 46.6378C23.3819 46.6378 17.2369 46.6378 16.2061 46.6378C15.8161 46.638 15.4584 46.4501 15.2935 46.1586C14.8999 45.464 14.5231 44.6707 14.1695 43.7921C16.2962 42.9847 18.5455 42.5757 20.8709 42.5751C23.1968 42.5757 25.4462 42.9847 27.5729 43.7921C27.2192 44.6707 26.8426 45.4646 26.4485 46.16ZM39.009 49.684C39.009 50.1564 38.989 50.6272 38.9489 51.0957C37.0441 47.527 34.0035 44.5885 30.2218 42.7165C30.8905 40.6931 31.4417 38.3877 31.8438 35.937C36.3568 39.1948 39.0087 44.2297 39.009 49.684ZM30.4736 26.4812C30.4732 31.4362 29.7962 37.1144 28.2646 41.869C25.916 40.9907 23.4344 40.5447 20.8709 40.5441C18.3077 40.5449 15.8264 40.9907 13.4781 41.8693C11.9464 37.1146 11.2691 31.4362 11.2691 26.4814C11.2691 21.4819 12.7722 16.2113 15.738 10.8063H26.0043C28.9705 16.211 30.4732 21.4819 30.4736 26.4812ZM24.8235 8.775L16.919 8.77499C18.476 6.24434 19.9864 4.31626 20.8712 3.25754C21.7559 4.31626 23.2667 6.24406 24.8235 8.775Z" fill="white"/>
</svg>
