<svg width="80" height="76" viewBox="0 0 80 76" fill="none" xmlns="http://www.w3.org/2000/svg">
<g clip-path="url(#clip0_43_186)">
<path d="M0 45.6C0 46.9991 1.19391 48.1333 2.66667 48.1333H32C32.7364 48.1333 33.3333 47.5662 33.3333 46.8666C33.3333 46.1671 32.7364 45.6 32 45.6H2.66667V16.4666C2.66667 15.7671 2.06971 15.2 1.33333 15.2C0.596954 15.2 0 15.7671 0 16.4666V45.6Z" fill="white"/>
<path d="M0 10.1333C0 10.8329 0.596954 11.4 1.33333 11.4C2.06971 11.4 2.66667 10.8329 2.66667 10.1333V2.53333H69.3333V19C69.3333 19.6996 69.9303 20.2667 70.6667 20.2667C71.403 20.2667 72 19.6996 72 19V2.53333C72 1.13421 70.8061 0 69.3333 0H2.66667C1.19391 0 0 1.13421 0 2.53333V10.1333Z" fill="white"/>
<path d="M7.99935 8.8667C8.73573 8.8667 9.33268 8.2996 9.33268 7.60004C9.33268 6.90048 8.73573 6.33337 7.99935 6.33337C7.26297 6.33337 6.66602 6.90048 6.66602 7.60004C6.66602 8.2996 7.26297 8.8667 7.99935 8.8667Z" fill="white"/>
<path d="M13.3333 8.8667C14.0697 8.8667 14.6667 8.2996 14.6667 7.60004C14.6667 6.90048 14.0697 6.33337 13.3333 6.33337C12.597 6.33337 12 6.90048 12 7.60004C12 8.2996 12.597 8.8667 13.3333 8.8667Z" fill="white"/>
<path d="M18.6663 8.8667C19.4027 8.8667 19.9997 8.2996 19.9997 7.60004C19.9997 6.90048 19.4027 6.33337 18.6663 6.33337C17.93 6.33337 17.333 6.90048 17.333 7.60004C17.333 8.2996 17.93 8.8667 18.6663 8.8667Z" fill="white"/>
<path d="M7.05737 31.2955C7.57804 31.79 8.42204 31.79 8.94271 31.2955L17.3334 23.3244L21.724 27.4955C22.2447 27.99 23.0887 27.99 23.6094 27.4955L33.3334 18.2577L37.724 22.4288C38.2447 22.9233 39.0887 22.9233 39.6094 22.4288L50.6667 11.9244L55.0574 16.0955C55.578 16.59 56.422 16.59 56.9427 16.0955L64.9427 8.49548C65.2893 8.17746 65.4283 7.70651 65.3063 7.26364C65.1843 6.82078 64.8202 6.47492 64.354 6.359C63.8879 6.24308 63.3921 6.37514 63.0574 6.70442L56 13.4089L51.6094 9.23775C51.0887 8.74327 50.2447 8.74327 49.724 9.23775L38.6667 19.7422L34.276 15.5711C33.7554 15.0766 32.9114 15.0766 32.3907 15.5711L22.6667 24.8089L18.276 20.6378C17.7554 20.1433 16.9114 20.1433 16.3907 20.6378L7.05737 29.5044C6.53686 29.9991 6.53686 30.8009 7.05737 31.2955Z" fill="white"/>
<path d="M57.3335 19C49.384 18.9929 42.0128 22.9463 37.9122 29.4161C33.8117 35.8859 33.5824 43.9245 37.3082 50.5957L32.3242 55.3318C31.8024 55.8264 31.8016 56.6291 32.3222 57.1248C32.8428 57.6204 33.6878 57.6212 34.2095 57.1267L38.7428 52.82C40.2809 54.9142 42.1961 56.734 44.4002 58.1957L29.4975 72.3558C27.9327 73.8291 25.4113 73.8319 23.8428 72.3621C22.2779 70.8768 22.2743 68.4683 23.8348 66.9788L29.5015 61.6081C30.0076 61.1118 30.0016 60.3217 29.488 59.8324C28.9744 59.3431 28.1427 59.3351 27.6188 59.8145L21.9442 65.1928C19.3483 67.671 19.3525 71.6773 21.9535 74.1507C24.5632 76.6109 28.7732 76.6109 31.3828 74.1507L46.7415 59.5574C55.075 63.7555 65.2742 62.6119 72.3499 56.686C79.4255 50.7601 81.8986 41.2907 78.5592 32.91C75.2198 24.5293 66.7662 18.9893 57.3335 19ZM57.3335 59.5333C46.2878 59.5333 37.3335 51.0267 37.3335 40.5333C37.3335 30.0399 46.2878 21.5333 57.3335 21.5333C68.3792 21.5333 77.3335 30.0399 77.3335 40.5333C77.321 51.0218 68.374 59.5215 57.3335 59.5333Z" fill="white"/>
<path d="M52.9727 25.9122C46.0966 27.7771 41.3499 33.7401 41.334 40.5333C41.334 41.2329 41.9309 41.8 42.6673 41.8C43.4037 41.8 44.0007 41.2329 44.0007 40.5333C44.013 34.8739 47.967 29.9057 53.6953 28.3518C54.1541 28.2292 54.5091 27.8834 54.6266 27.4446C54.7442 27.0059 54.6065 26.5409 54.2653 26.2248C53.9241 25.9087 53.4314 25.7896 52.9727 25.9122Z" fill="white"/>
</g>
<defs>
<clipPath id="clip0_43_186">
<rect width="80" height="76" fill="white"/>
</clipPath>
</defs>
</svg>
