<svg width="139" height="152" viewBox="0 0 139 152" fill="none" xmlns="http://www.w3.org/2000/svg">
<path d="M51.5 43.3094C53.9752 41.8803 57.0248 41.8803 59.5 43.3094L99.5644 66.4406C102.04 67.8697 103.564 70.5107 103.564 73.3688V119.631C103.564 122.489 102.04 125.13 99.5644 126.559L59.5 149.691C57.0248 151.12 53.9752 151.12 51.5 149.691L11.4356 126.559C8.96038 125.13 7.43559 122.489 7.43559 119.631V73.3688C7.43559 70.5107 8.96038 67.8697 11.4356 66.4406L51.5 43.3094Z" fill="#EBF2FC"/>
<path d="M109 1.1547C110.238 0.440169 111.762 0.440169 113 1.1547L133.249 12.8453C134.486 13.5598 135.249 14.8803 135.249 16.3094V39.6906C135.249 41.1197 134.486 42.4402 133.249 43.1547L113 54.8453C111.762 55.5598 110.238 55.5598 109 54.8453L88.7513 43.1547C87.5137 42.4402 86.7513 41.1197 86.7513 39.6906V16.3094C86.7513 14.8803 87.5137 13.5598 88.7513 12.8453L109 1.1547Z" fill="#EBF2FC"/>
</svg>
