<svg width="24" height="24" viewBox="0 0 24 24" fill="none" xmlns="http://www.w3.org/2000/svg">
<path d="M20.4015 3.48901C19.3012 2.37853 17.9909 1.49813 16.547 0.89912C15.103 0.300112 13.5543 -0.00552745 11.991 1.29606e-05C5.4405 1.29606e-05 0.102 5.33701 0.096 11.889C0.096 13.9875 0.645 16.029 1.6815 17.8365L0 24L6.306 22.347C8.05051 23.2964 10.0049 23.794 11.991 23.7945H11.997C18.549 23.7945 23.886 18.4575 23.892 11.8995C23.8935 10.3366 23.5857 8.78879 22.9864 7.34533C22.3871 5.90187 21.5081 4.59126 20.4 3.48901H20.4015ZM11.991 21.7815C10.2195 21.7821 8.48055 21.3054 6.957 20.4015L6.597 20.1855L2.856 21.1665L3.855 17.517L3.621 17.1405C2.63071 15.566 2.10697 13.7431 2.1105 11.883C2.1105 6.44401 6.546 2.00701 11.997 2.00701C13.2956 2.00468 14.5818 2.25942 15.7815 2.75655C16.9812 3.25368 18.0706 3.98335 18.987 4.90351C19.9065 5.82009 20.6355 6.90965 21.1319 8.10936C21.6282 9.30907 21.8822 10.5952 21.879 11.8935C21.873 17.352 17.4375 21.7815 11.991 21.7815ZM17.4135 14.3805C17.118 14.232 15.6585 13.5135 15.384 13.4115C15.111 13.314 14.9115 13.263 14.7165 13.56C14.517 13.8555 13.947 14.529 13.776 14.7225C13.605 14.922 13.428 14.9445 13.131 14.7975C12.8355 14.6475 11.877 14.3355 10.743 13.32C9.858 12.5325 9.2655 11.5575 9.0885 11.262C8.9175 10.965 9.072 10.806 9.2205 10.6575C9.351 10.5255 9.516 10.3095 9.6645 10.1385C9.8145 9.96751 9.864 9.84151 9.9615 9.64351C10.059 9.44251 10.0125 9.27151 9.939 9.12301C9.864 8.97451 9.2715 7.50901 9.021 6.91801C8.781 6.33451 8.5365 6.41551 8.3535 6.40801C8.1825 6.39751 7.983 6.39751 7.7835 6.39751C7.63285 6.40126 7.48459 6.4361 7.34804 6.49986C7.21149 6.56362 7.08959 6.65491 6.99 6.76801C6.717 7.06501 5.9535 7.78351 5.9535 9.24901C5.9535 10.7145 7.0185 12.123 7.1685 12.3225C7.3155 12.522 9.2595 15.5205 12.243 16.8105C12.948 17.118 13.503 17.2995 13.9365 17.4375C14.649 17.6655 15.2925 17.631 15.8055 17.5575C16.3755 17.4705 17.562 16.8375 17.8125 16.143C18.0585 15.447 18.0585 14.853 17.9835 14.7285C17.91 14.6025 17.7105 14.529 17.4135 14.3805Z" fill="#282C37"/>
</svg>
